<svg width="143" height="143" viewBox="0 0 143 143" fill="none" xmlns="http://www.w3.org/2000/svg">
<path d="M70.7 98C85.943 98 98.3 85.643 98.3 70.4C98.3 55.1569 85.943 42.8 70.7 42.8C55.4569 42.8 43.1 55.1569 43.1 70.4C43.1 85.643 55.4569 98 70.7 98Z" stroke="#005640" stroke-width="2" stroke-miterlimit="10"/>
<path d="M52.6 83.7L51.2 79.2C50.1 75.7 53.8 72.6 57 74.3L60.6 76.1C63 77.3 63.6 80.4 61.9 82.5L59.7 85.1C57.6 87.6 53.6 86.8 52.6 83.7Z" stroke="#005640" stroke-width="2" stroke-miterlimit="10"/>
<path d="M91.4 65.3H78.2C74.4 65.3 71.4 66.7 71.4 70.4C71.4 71.6 71.4 73.3 73.5 74.4C73.7 74.5 74 74.6 74.2 74.7L80.9 77.6L86.2 87.3C86.6 88.6 89.5 90.6 90.5 89.6C94.8 85.1 97.7 79.2 98.2 72.6C98.2 72.6 97.5 65.3 91.4 65.3Z" stroke="#005640" stroke-width="2" stroke-miterlimit="10"/>
<path d="M96.2 60C94.1 54.8 90.4 50.4 85.8 47.4H85.5C79.1 47.4 74 52.6 74 58.9C74 60.6 75.4 61.9 77 61.9H93.3C94.7 61.9 95.8 61.1 96.2 60Z" stroke="#005640" stroke-width="2" stroke-miterlimit="10"/>
<path d="M64.5 43.5C64.1 44.2 63.9 45 63.9 45.9V47.6C63.9 49.6 65.1 51.3 66.9 52.1C66.9 52.1 68.7 47.9 73.6 47.6V45.9C73.6 44.8 73.2 43.7 72.5 42.9C71.9 42.9 71.3 42.8 70.7 42.8C68.5 42.8 66.4 43 64.5 43.5Z" stroke="#005640" stroke-width="2" stroke-miterlimit="10"/>
<path d="M43 70.4C43 70.9 43 71.4 43 71.9L52.7 67.4C54.9 66.4 56.6 64.4 57.2 62L60.1 50.4C60.6 48.6 60.3 46.7 59.5 45C49.8 49.4 43 59.1 43 70.4Z" stroke="#005640" stroke-width="2" stroke-miterlimit="10"/>
<path d="M113.1 40.6C113.7 45.4 117.8 49.3 116.1 58.2C116.1 58.2 114.3 66.4 103.4 71.3C103.4 71.3 98.8 60 101.2 53.8C103.8 45.5 113.1 40.6 113.1 40.6Z" stroke="#005640" stroke-width="2" stroke-miterlimit="10"/>
<path d="M110.2 49.3C110.2 49.3 110.8 67.3 98.3 76.5" stroke="#005640" stroke-width="2" stroke-miterlimit="10"/>
<path d="M71.1 142.3C32 142.3 0.0999756 110.5 0.0999756 71.3C0.0999756 32.1 31.9 0.299988 71.1 0.299988C110.3 0.299988 142.1 32.1 142.1 71.3C142.1 110.5 110.2 142.3 71.1 142.3ZM71.1 5.29999C34.7 5.29999 5.09998 34.9 5.09998 71.3C5.09998 107.7 34.7 137.3 71.1 137.3C107.5 137.3 137.1 107.7 137.1 71.3C137.1 34.9 107.5 5.29999 71.1 5.29999Z" fill="#D79F4F"/>
</svg>
