<svg width="143" height="143" viewBox="0 0 143 143" fill="none" xmlns="http://www.w3.org/2000/svg">
<g id="Group">
<g id="Group 1">
<path id="Vector" d="M48.4 76.5H49.7V91.3H47.4V80.5L45 82.7V79.5L48.4 76.5Z" fill="#005640"/>
<path id="Vector_2" d="M55.2 91.6C54.2 91.6 53.4 91.3 52.7 90.7C52 90 51.6 89.1 51.6 87.9V86.6H53.9V87.9C53.9 88.4 54 88.8 54.2 89C54.4 89.2 54.7 89.3 55.1 89.3C55.5 89.3 55.8 89.2 56 89C56.2 88.8 56.3 88.5 56.3 87.9V86.6C56.3 85.9 56 85.4 55.5 84.9C55.3 84.7 55.2 84.6 55 84.5C54.8 84.4 54.7 84.4 54.7 84.3C54.6 84.3 54.4 84.2 54.1 84C53.8 83.8 53.5 83.6 53.2 83.3C52.7 82.8 52.3 82.3 52 81.7C51.7 81.1 51.6 80.5 51.6 79.8V76.3H58.7V78.6H54V79.8C54 80.5 54.3 81 54.8 81.5C55 81.7 55.2 81.8 55.4 81.9C55.6 82 55.7 82 55.7 82C55.8 82 56.1 82.1 56.3 82.3C56.6 82.5 56.9 82.7 57.2 82.9C58.2 83.8 58.8 85 58.8 86.3V87.6C58.8 88.8 58.4 89.7 57.7 90.4C57 91.3 56.2 91.6 55.2 91.6Z" fill="#005640"/>
<path id="Vector_3" d="M69.3 89H66.6L66.2 91.4H63.8L66.8 76.6H69.1L72.1 91.4H69.7L69.3 89ZM68.9 86.7L68 81.4L67.1 86.7H68.9Z" fill="#005640"/>
<path id="Vector_4" d="M81 91.4H79.6L76 83.9V91.4H73.7V76.6H75.1L78.7 84.1V76.6H81V91.4ZM76.2 75.1C76.4 75 76.7 75.1 77 75.3C77.4 75.6 77.9 75.7 78.3 75.7C78.7 75.7 79 75.6 79.3 75.4C79.6 75.2 79.9 74.9 80.1 74.5L79.1 73.8C78.8 74.2 78.6 74.4 78.4 74.5C78.2 74.5 78 74.5 77.7 74.3C77.2 74 76.8 73.9 76.4 73.9C76.3 73.9 76.2 73.9 76 73.9C75.5 74 75 74.4 74.5 75L75.4 75.7C75.7 75.4 76 75.1 76.2 75.1Z" fill="#005640"/>
<path id="Vector_5" d="M86.4 91.5C85.4 91.5 84.6 91.2 83.9 90.6C83.2 89.9 82.8 89 82.8 87.8V80C82.8 78.8 83.2 77.9 83.9 77.2C84.5 76.6 85.3 76.3 86.4 76.3C87.4 76.3 88.2 76.6 88.9 77.2C89.6 77.9 90 78.8 90 80V87.9C90 89.1 89.6 90 88.9 90.7C88.2 91.3 87.4 91.5 86.4 91.5ZM86.4 78.7C86 78.7 85.7 78.8 85.5 79C85.3 79.2 85.2 79.6 85.2 80.1V88C85.2 88.5 85.3 88.9 85.5 89.1C85.7 89.3 86 89.4 86.4 89.4C86.8 89.4 87.1 89.3 87.3 89.1C87.5 88.9 87.6 88.6 87.6 88V80C87.6 79.5 87.5 79.1 87.3 78.9C87.1 78.8 86.8 78.7 86.4 78.7Z" fill="#005640"/>
<path id="Vector_6" d="M95.1 91.5C94.1 91.5 93.3 91.2 92.6 90.6C91.9 89.9 91.5 89 91.5 87.8V86H93.8V87.9C93.8 88.4 93.9 88.8 94.1 89C94.3 89.2 94.6 89.3 95 89.3C95.4 89.3 95.7 89.2 95.9 89C96.1 88.8 96.2 88.5 96.2 87.9V87C96.2 86.3 95.9 85.8 95.4 85.3C95.3 85.2 95 85 94.5 84.7C93.8 84.3 93.3 84 93 83.8C92.5 83.3 92.1 82.8 91.8 82.3C91.5 81.7 91.4 81.1 91.4 80.4V80C91.4 78.8 91.8 77.9 92.5 77.2C93.1 76.6 93.9 76.3 95 76.3C96 76.3 96.8 76.6 97.5 77.2C98.2 77.9 98.6 78.8 98.6 80V81.3H96.3V80C96.3 79.5 96.2 79.1 96 78.9C95.8 78.7 95.5 78.6 95.1 78.6C94.7 78.6 94.4 78.7 94.2 78.9C94 79.1 93.9 79.5 93.9 80V80.4C93.9 81.1 94.2 81.6 94.7 82.1C94.8 82.2 95.1 82.4 95.5 82.6C96.2 83 96.7 83.3 97 83.6C98 84.5 98.6 85.7 98.6 87V87.9C98.6 89.1 98.2 90 97.5 90.7C97 91.3 96.1 91.5 95.1 91.5Z" fill="#005640"/>
<path id="Vector_7" d="M51.5 65V66.9H52.8V68.1H51.5V70.2H53.4V71.4H50.3V63.9H53.4V65.1H51.5V65Z" fill="#005640"/>
<path id="Vector_8" d="M57 71.3L56.2 69.1L55.4 71.3H54.2L55.6 67.6L54.2 63.9H55.4L56.2 66.1L57 63.9H58.3L56.9 67.6L58.3 71.3H57Z" fill="#005640"/>
<path id="Vector_9" d="M60.3 71.3H59.1V63.8H60.9C61.4 63.8 61.8 63.9 62.1 64.2C62.5 64.5 62.6 65 62.6 65.6V66.4C62.6 67 62.4 67.5 62.1 67.8C61.8 68.1 61.4 68.2 60.9 68.2H60.3V71.3V71.3ZM60.3 67.1H60.9C61.1 67.1 61.2 67.1 61.3 67C61.4 66.9 61.5 66.7 61.5 66.5V65.7C61.5 65.5 61.4 65.3 61.3 65.2C61.2 65.1 61.1 65.1 60.9 65.1H60.3V67.1Z" fill="#005640"/>
<path id="Vector_10" d="M64.7 65V66.9H66V68.1H64.7V70.2H66.6V71.4H63.5V63.9H66.6V65.1H64.7V65Z" fill="#005640"/>
<path id="Vector_11" d="M71.1 71.3H69.9L69.3 68.3H68.8V71.3H67.6V63.8H69.4C69.9 63.8 70.3 63.9 70.6 64.2C71 64.5 71.1 65 71.1 65.6V66.4C71.1 67 70.9 67.5 70.6 67.8C70.6 67.8 70.5 67.9 70.4 67.9L71.1 71.3ZM70 65.7C70 65.5 69.9 65.3 69.8 65.2C69.7 65.1 69.6 65.1 69.4 65.1H68.8V67.2H69.4C69.6 67.2 69.7 67.2 69.8 67.1C69.9 67 70 66.8 70 66.6V65.7Z" fill="#005640"/>
<path id="Vector_12" d="M73.3 71.3H72.1V63.8H73.3V71.3Z" fill="#005640"/>
<path id="Vector_13" d="M75.6 65V66.9H76.9V68.1H75.6V70.2H77.5V71.4H74.4V63.9H77.5V65.1H75.6V65Z" fill="#005640"/>
<path id="Vector_14" d="M82.1 71.3H81.4L79.6 67.5V71.3H78.4V63.8H79.1L80.9 67.6V63.8H82.1V71.3Z" fill="#005640"/>
<path id="Vector_15" d="M84.8 71.4C84.3 71.4 83.9 71.3 83.6 71C83.2 70.6 83.1 70.2 83.1 69.6V65.6C83.1 65 83.3 64.6 83.6 64.2C83.9 63.9 84.3 63.8 84.8 63.8C85.3 63.8 85.7 63.9 86 64.2C86.4 64.5 86.5 65 86.5 65.6V66.3H85.3V65.6C85.3 65.3 85.3 65.2 85.2 65.1C85.1 65 85 65 84.8 65C84.6 65 84.5 65 84.4 65.1C84.3 65.2 84.2 65.4 84.2 65.6V69.6C84.2 69.9 84.3 70 84.4 70.1C84.5 70.2 84.6 70.2 84.8 70.2C85 70.2 85.2 70.2 85.2 70.1C85.3 70 85.3 69.8 85.3 69.6V68.6H86.5V69.6C86.5 70.2 86.3 70.7 86 71C85.7 71.2 85.3 71.4 84.8 71.4Z" fill="#005640"/>
<path id="Vector_16" d="M88.7 71.3H87.5V63.8H88.7V71.3Z" fill="#005640"/>
<path id="Vector_17" d="M92.3 70.1H91L90.8 71.3H89.6L91.1 63.8H92.3L93.8 71.3H92.6L92.3 70.1ZM92.1 68.9L91.6 66.2L91.1 68.9H92.1Z" fill="#005640"/>
<path id="Vector_18" d="M48.5 45.7C48.5 45.1 48.5 44.6 48.5 44.1C48.5 42.1 49.9 40.6 51.9 40.5C53.8 40.5 55.3 42 55.4 44C55.4 44.5 55.4 45.1 55.4 45.6C66.3 45.6 77.2 45.6 88.2 45.6C88.2 45.1 88.2 44.6 88.2 44.1C88.2 43.4 88.3 42.8 88.7 42.2C89.5 40.9 91.1 40.2 92.6 40.7C94.1 41.1 95.1 42.4 95.1 44C95.1 44.5 95.1 45.1 95.1 45.7C95.3 45.7 95.5 45.7 95.6 45.7C97.6 45.7 99.7 45.7 101.7 45.7C103.6 45.7 105.1 46.8 105.5 48.6C105.6 48.8 105.6 49 105.6 49.3C105.6 65.7 105.6 82.1 105.6 98.6C105.6 100.4 104.2 101.9 102.3 102.1C102 102.1 101.6 102.1 101.3 102.1C81.9 102.1 62.5 102.1 43.2 102.1C42.6 102.1 42.1 102.1 41.5 102.1C39.6 101.9 38.2 100.4 38.2 98.4C38.2 82.1 38.2 65.8 38.2 49.5C38.2 47.6 39.7 45.6 42 45.7C44 45.7 46.1 45.7 48.1 45.7C48.1 45.7 48.3 45.7 48.5 45.7ZM103.4 57.1C82.3 57.1 61.3 57.1 40.2 57.1C40.2 57.3 40.2 57.5 40.2 57.7C40.2 71 40.2 84.4 40.2 97.7C40.2 97.8 40.2 98 40.2 98.1C40.2 99.3 40.9 99.9 42.1 99.9C61.9 99.9 81.6 99.9 101.4 99.9C102.9 99.9 103.5 99.3 103.5 97.9C103.5 84.5 103.5 71.1 103.5 57.6C103.4 57.5 103.4 57.3 103.4 57.1ZM48.5 47.8C48.3 47.8 48.1 47.8 47.9 47.8C46 47.8 44 47.8 42.1 47.8C40.7 47.8 40.1 48.4 40.1 49.8C40.1 51.4 40.1 52.9 40.1 54.5C40.1 54.6 40.1 54.8 40.1 54.9C61.2 54.9 82.2 54.9 103.3 54.9C103.3 54.8 103.3 54.8 103.3 54.7C103.3 53 103.3 51.3 103.3 49.6C103.3 48.4 102.6 47.8 101.4 47.8C99.4 47.8 97.4 47.8 95.4 47.8C95.3 47.8 95.1 47.8 94.9 47.8C94.9 48.4 94.9 49 94.9 49.6C94.9 51.8 92.8 53.4 90.7 52.9C89.1 52.5 88.1 51.2 88 49.5C88 49 88 48.4 88 47.9C77.1 47.9 66.2 47.9 55.2 47.9C55.2 48.5 55.2 49 55.2 49.5C55.2 51.7 53.4 53.1 51.6 53C49.8 52.9 48.4 51.4 48.4 49.5C48.5 48.9 48.5 48.4 48.5 47.8ZM92.8 46.8C92.8 45.9 92.8 45 92.8 44.1C92.8 43.3 92.3 42.8 91.6 42.8C90.9 42.8 90.3 43.3 90.3 44.1C90.3 45.9 90.3 47.8 90.3 49.6C90.3 50.4 90.9 50.9 91.6 50.9C92.3 50.9 92.8 50.3 92.8 49.6C92.8 48.6 92.8 47.7 92.8 46.8ZM50.7 46.7C50.7 47.6 50.7 48.5 50.7 49.4C50.7 50.2 51.2 50.7 51.9 50.7C52.6 50.7 53.2 50.2 53.2 49.5C53.2 47.6 53.2 45.8 53.2 43.9C53.2 43.2 52.6 42.6 51.9 42.6C51.2 42.6 50.7 43.2 50.7 43.9C50.7 44.9 50.7 45.8 50.7 46.7Z" fill="#005640"/>
</g>
<path id="Vector_19" d="M71.7 142.3C32.6 142.3 0.700012 110.5 0.700012 71.3C0.700012 32.1 32.5 0.299988 71.7 0.299988C110.9 0.299988 142.7 32.1 142.7 71.3C142.7 110.5 110.9 142.3 71.7 142.3ZM71.7 5.29999C35.3 5.29999 5.70001 34.9 5.70001 71.3C5.70001 107.7 35.3 137.3 71.7 137.3C108.1 137.3 137.7 107.7 137.7 71.3C137.7 34.9 108.1 5.29999 71.7 5.29999Z" fill="#D79F4F"/>
</g>
</svg>
