<svg width="143" height="143" viewBox="0 0 143 143" fill="none" xmlns="http://www.w3.org/2000/svg">
<path d="M92.1 50.3C92.1 50.5 92.1 50.8 92 51C91.3 53.2 92.2 54.6 94.2 55.6C96.8 57 97.2001 58.6 95.4001 61C94.1001 62.8 94.1001 64.2 95.4001 66C97.2001 68.6 96.9 70 94.1 71.5C92.3 72.5 91.6 73.7 92 75.9C92.6 79.1 91.7 80.2 88.5 80.4C86.3 80.5 85.2 81.4 84.6 83.5C83.8 86.5 82.4 87.1 79.6 86C77.6 85.2 76.2 85.3 74.7 87C72.6 89.4 71.0001 89.4 68.9001 86.9C67.5001 85.3 66.2 85 64.3 85.8C61.1 87.1 60 86.5 59 83.2C58.4 81.3 57.4001 80.5 55.4001 80.3C51.9001 80.1 51 78.9 51.7 75.5C52 73.7 51.6001 72.6 49.9001 71.6C46.6001 69.7 46.3001 68.5 48.4001 65.5C49.4001 64 49.5001 62.8 48.4001 61.2C46.3001 58.2 46.6 56.9 49.8 55C51.5 54.1 51.9 52.9 51.6 51.1C51 47.7 51.9 46.6 55.3 46.3C57.3 46.2 58.3001 45.4 58.9001 43.4C59.9001 40.1 61.1001 39.5 64.4001 40.8C66.2001 41.5 67.4 41.2 68.7 39.8C71.1 37.2 72.5001 37.2 74.9001 39.8C76.1001 41.2 77.3 41.5 79 40.8C82.4 39.4 83.6 40 84.6 43.4C85.2 45.6 86.6 46.1 88.6 46.2C91.3 46.9 92.2 47.9 92.1 50.3ZM90.4001 50.4C90.6001 48.7 89.6 48.4 88.3 48.4C85.4 48.4 83.7 47.2 83 44.3C82.4 42.1 81.9001 41.9 79.9001 42.8C77.4001 43.9 75.5 43.6 73.7 41.5C72 39.6 71.7 39.6 70 41.5C68.2 43.5 66.4001 44 63.9001 42.9C61.6001 41.9 61.1 42.1 60.5 44.5C59.8 47.2 58.2 48.3 55.5 48.4C53.2 48.5 52.9 48.9 53.3 51.3C53.8 53.8 53.1 55.6 50.8 56.8C48.4 58.1 48.3001 58.3 49.9001 60.7C51.3001 62.8 51.3001 64.6 49.9001 66.7C48.3001 68.9 48.4 69.3 50.8 70.6C53 71.8 53.8001 73.5 53.4001 75.9C52.9001 78.5 53.2001 78.9 55.9001 79C58.5001 79.1 59.8 80.3 60.5 82.7C61.3 85.4 61.4 85.5 64.1 84.4C66.4 83.4 68.2001 83.8 69.9001 85.7C71.7001 87.8 72.1001 87.8 73.9001 85.7C75.6001 83.8 77.4 83.4 79.7 84.4C82.3 85.5 82.5 85.4 83.3 82.7C84 80.3 85.4001 79.1 87.9001 79C90.6001 78.9 90.9001 78.5 90.4001 75.9C89.9001 73.5 90.7 71.9 92.8 70.7C95.4 69.2 95.4 69.1 93.7 66.6C92.4 64.7 92.3 62.8 93.7 61C94 60.6 94.5 60.1 94.5 59.7C94.5 59.1 94.4 58.3 94.1 57.8C93.7 57.3 93 57 92.4001 56.6C90.7001 55.6 90 54.1 90.4001 52.2C90.3001 51.5 90.4001 50.9 90.4001 50.4Z" fill="#005640"/>
<path d="M63.4 101.5C64.9 97 66.4 92.8 67.9 88.3C68.7 88.9 69.1 89.2 69.5 89.5C69.5 89.7 69.5 89.8 69.4 89.9C67.4 94 66 98.2 65.3 102.7C65.2 103.2 64.8 103.9 64.3 104.1C64 104.2 63.2 103.8 62.9 103.4C61.2 101.2 59.6 99 57.8 96.5C55.8 98.2 53.7 99.9 51.5 101.5C50.9 102 50.1 102.2 49.4 102.5C49.2 101.7 48.8 100.9 48.9 100.1C49.7 94.1 51.5 88.4 54.2 82.9C54.7 81.9 55.3 81.5 56.5 82.1C53.7 87.6 51.6 93.3 50.7 99.6C52.8 98.1 54.7 96.6 56.6 95.3C58.4 94 58.6 94.1 59.8 96.1C61 98 62.2 99.7 63.4 101.5Z" fill="#005640"/>
<path d="M80.2 101.5C81.4 99.6 82.7 97.7 83.9 95.8C84.6 94.5 85.4 94.3 86.6 95.2C88.6 96.7 90.6 98.1 92.8 99.8C91.9 93.5 89.9 87.8 87 82.3C88 81.7 88.7 81.7 89.2 82.8C92 88.5 93.9 94.4 94.6 100.7C94.7 101.3 94.3 101.9 94.1 102.6C93.5 102.4 92.8 102.3 92.3 101.9C90.1 100.2 88 98.4 85.7 96.5C84.3 98.6 83 100.4 81.7 102.2C81.3 102.7 80.9 103.2 80.5 103.7C79.5 104.7 78.5 104.4 78.3 103C77.7 98.3 76.2 93.9 74.1 89.6C74.5 89.2 74.9 88.9 75.7 88.2C77.2 92.8 78.6 97.1 80.2 101.5Z" fill="#005640"/>
<path d="M54.1 63.6C54.1 53.8 61.9 46 71.7 46C81.6 46 89.5 53.9 89.5 63.7C89.4 73.4 81.5 81.4 71.8 81.4C62 81.4 54.1 73.5 54.1 63.6ZM71.9 47.7C63.1 47.7 55.9 54.7 55.9 63.6C55.8 72.5 63 79.7 71.9 79.7C80.6 79.7 87.9 72.4 87.9 63.7C87.8 54.9 80.6 47.7 71.9 47.7Z" fill="#005640"/>
<path d="M68.7 65.4C72.6 61.5 75.9 58.1 79.3 54.6C80.6 56 81.8 57.2 82.9 58.5C78.3 63.1 73.6 67.7 69 72.3C66.7 70 64.3 67.5 61.8 64.9C62.8 64 64.1 62.8 65.7 61.4C66.5 62.5 67.5 63.8 68.7 65.4Z" fill="#005640"/>
<path d="M71.8 142.3C32.7 142.3 0.799988 110.5 0.799988 71.3C0.799988 32.1 32.6 0.299988 71.8 0.299988C111 0.299988 142.8 32.1 142.8 71.3C142.8 110.5 110.9 142.3 71.8 142.3ZM71.8 5.29999C35.4 5.29999 5.79999 34.9 5.79999 71.3C5.79999 107.7 35.4 137.3 71.8 137.3C108.2 137.3 137.8 107.7 137.8 71.3C137.8 34.9 108.2 5.29999 71.8 5.29999Z" fill="#D79F4F"/>
</svg>
