<svg width="143" height="143" viewBox="0 0 143 143" fill="none" xmlns="http://www.w3.org/2000/svg">
<path d="M86.4 79.1C85.7 78.6 85 78.2 84.4 77.8C83.8 77.4 83.1 77.1 82.5 76.8C81.8 76.4 81.5 75.8 81.8 75.2C82.1 74.6 82.8 74.4 83.5 74.7C87.2 76.5 90.4 79 93 82.3C96.9 87.3 98.9 93 98.9 99.4C98.9 100.3 98.9 101.2 98.9 102C98.9 103 98.5 103.4 97.5 103.4C94.2 103.4 91 103.4 87.7 103.4C73.9 103.4 60.1 103.4 46.3 103.4C45 103.4 44.7 103.1 44.7 101.8C44.7 99.3 44.6 96.7 45.1 94.2C46.9 85.3 51.9 78.7 60.1 74.6C60.6 74.4 61 74.3 61.4 74.6C61.8 74.9 61.9 75.2 61.9 75.7C61.8 76.2 61.6 76.4 61.2 76.7C60.2 77.3 59.2 77.8 58.1 78.4C57.8 78.6 57.5 78.8 57.2 79.1C57.5 79.3 57.7 79.4 57.9 79.5C59.1 80.3 60.4 80.9 61.5 81.8C63.3 83.2 64.2 85.1 64.6 87.4C64.7 87.8 64.8 87.9 65.2 87.9C69.6 87.9 74 87.9 78.4 87.9C78.8 87.9 78.9 87.8 78.9 87.4C79.5 84.3 81.2 82 83.9 80.5C84.7 80 85.5 79.6 86.4 79.1ZM62.3 87.8C62.3 87.7 62.3 87.6 62.3 87.6C62.3 87.5 62.3 87.4 62.2 87.3C61.7 85.3 60.5 83.7 58.7 82.7C57.7 82.1 56.6 81.5 55.6 80.9C55.3 80.7 55.1 80.8 54.8 81C49.9 85.7 47.2 91.5 46.9 98.3C46.9 99.2 46.9 100.2 46.9 101.1C49.6 101.1 52.3 101.1 55 101.1C55 100.8 55 100.6 55 100.4C55 97.4 55 94.4 55 91.4C55 91.2 55 91.1 55 90.9C55 90.3 55.5 89.8 56.1 89.8C56.7 89.8 57.2 90.2 57.2 90.8C57.2 91 57.2 91.2 57.2 91.4C57.2 94.4 57.2 97.4 57.2 100.4C57.2 100.6 57.2 100.8 57.2 101C58.9 101 60.6 101 62.3 101C62.3 99 62.3 97 62.3 95C62.3 94.9 62.1 94.7 62 94.7C60.8 94.3 60.2 93.5 60.1 92.2C60.1 91.7 60.1 91.1 60.1 90.6C60.3 89 60.7 88.4 62.3 87.8ZM86.2 101.1C86.2 100.8 86.2 100.6 86.2 100.4C86.2 97.4 86.2 94.4 86.2 91.4C86.2 91.2 86.2 91.1 86.2 90.9C86.2 90.4 86.6 90 87.1 89.9C87.6 89.8 88 90 88.3 90.4C88.4 90.6 88.5 91 88.5 91.3C88.5 94.4 88.5 97.5 88.5 100.6C88.5 100.8 88.5 101 88.5 101.1C88.6 101.1 88.7 101.2 88.7 101.2C91.2 101.2 93.8 101.2 96.3 101.2C96.6 101.2 96.6 101.1 96.6 100.8C96.6 100.3 96.6 99.8 96.6 99.3C96.6 93.6 94.9 88.5 91.4 84C90.5 82.8 89.4 81.7 88.4 80.6C87 81.4 85.6 82.1 84.3 83C83.5 83.5 82.9 84.3 82.3 85C81.7 85.8 81.3 86.8 81.2 87.8C82.4 88.1 83.1 88.8 83.2 90C83.3 90.9 83.3 91.7 83.2 92.6C83.1 93.7 82.5 94.4 81.5 94.7C81.2 94.8 81.1 94.9 81.1 95.2C81.1 97 81.1 98.8 81.1 100.6C81.1 100.7 81.1 100.9 81.1 101C82.8 101.1 84.4 101.1 86.2 101.1ZM64.8 94.9C64.8 97 64.8 99.1 64.8 101.1C69.5 101.1 74.1 101.1 78.8 101.1C78.8 99 78.8 97 78.8 94.9C74.1 94.9 69.4 94.9 64.8 94.9ZM62.6 92.5C68.7 92.5 74.8 92.5 80.9 92.5C80.9 91.7 80.9 90.9 80.9 90.1C74.8 90.1 68.7 90.1 62.6 90.1C62.6 90.9 62.6 91.7 62.6 92.5Z" fill="#005640"/>
<path d="M56.8 54.3C57 52.5 57.4 50.7 58.3 49.1C59.7 46.5 61.8 44.7 64.4 43.3C64.8 43.1 64.9 42.9 64.9 42.5C64.7 41.4 65.3 40.9 66.2 40.5C70.1 38.9 73.9 38.8 77.7 40.7C78.3 41 78.7 41.5 78.6 42.2C78.5 42.8 78.7 43.2 79.3 43.5C82.2 45.1 84.4 47.2 85.7 50.3C86.2 51.4 86.4 52.6 86.6 53.8C86.7 54.2 86.8 54.4 87.2 54.5C88.7 54.9 89.7 56.2 89.7 57.8C89.7 59.4 88.6 60.7 87.1 61C86.3 61.1 85.4 61.1 84.6 61.1C84.3 61.1 84.1 61.1 83.8 61.1C84.1 65.5 82.6 69.2 79.1 72C76.9 73.8 74.3 74.6 71.4 74.6C67.8 74.5 64.9 73.1 62.5 70.5C60.1 67.9 59.3 64.7 59.5 61.1C58.6 61.1 57.8 61.1 57 61.1C55.7 61.1 54.7 60.5 54 59.4C52.9 57.5 53.9 55.1 56 54.5C56.3 54.4 56.5 54.4 56.8 54.3ZM59.2 54.3C59.4 54.3 59.6 54.3 59.8 54.3C64.2 54.3 68.6 54.3 73 54.3C73.4 54.3 73.8 54.3 74.3 54.3C74.9 54.3 75.3 54.8 75.3 55.3C75.4 55.8 75 56.3 74.5 56.5C74.3 56.6 74 56.6 73.8 56.6C68.3 56.6 62.9 56.6 57.4 56.6C57.2 56.6 57.1 56.6 56.9 56.6C56.3 56.7 55.9 57.2 56 57.7C56 58.2 56.5 58.7 57 58.7C57.2 58.7 57.4 58.7 57.6 58.7C66.9 58.7 76.3 58.7 85.6 58.7C85.9 58.7 86.2 58.7 86.6 58.7C87.1 58.7 87.5 58.2 87.6 57.7C87.6 57.2 87.3 56.7 86.8 56.6C86.6 56.6 86.4 56.6 86.2 56.6C84.2 56.6 82.1 56.6 80.1 56.6C79.2 56.6 78.6 56.2 78.6 55.5C78.6 54.8 79.1 54.3 80.1 54.3C81.4 54.3 82.6 54.3 83.9 54.3C84.1 54.3 84.3 54.3 84.4 54.3C84.5 51.3 81.5 46.8 78.7 45.8C78.7 46 78.7 46.1 78.7 46.3C78.7 47.5 78.7 48.8 78.7 50C78.7 50.7 78.2 51.1 77.6 51.1C76.9 51.1 76.5 50.6 76.4 50C76.4 49.9 76.4 49.8 76.4 49.7C76.4 47.5 76.4 45.4 76.4 43.2C76.4 42.7 76.2 42.5 75.8 42.4C73.1 41.4 70.3 41.4 67.6 42.5C67.3 42.6 67.2 42.8 67.2 43.1C67.2 45.4 67.2 47.7 67.2 50C67.2 50.7 66.7 51.2 66 51.2C65.4 51.2 64.9 50.7 64.9 50C64.9 48.9 64.9 47.9 64.9 46.8C64.9 46.5 64.9 46.1 64.9 45.8C62.1 46.7 58.8 51.7 59.2 54.3ZM61.9 61.1C61.7 65.2 63 68.6 66.6 70.8C70.1 73 73.8 72.9 77.2 70.6C80.6 68.4 81.8 65.1 81.6 61.1C75 61.1 68.5 61.1 61.9 61.1Z" fill="#005640"/>
<path d="M71.7 142.3C32.6 142.3 0.700012 110.5 0.700012 71.3C0.700012 32.2 32.5 0.299988 71.7 0.299988C110.9 0.299988 142.7 32.1 142.7 71.3C142.7 110.5 110.9 142.3 71.7 142.3ZM71.7 5.39999C35.3 5.39999 5.70001 35 5.70001 71.4C5.70001 107.8 35.3 137.4 71.7 137.4C108.1 137.4 137.7 107.8 137.7 71.4C137.7 35 108.1 5.39999 71.7 5.39999Z" fill="#D79F4F"/>
</svg>
