<svg width="143" height="143" viewBox="0 0 143 143" fill="none" xmlns="http://www.w3.org/2000/svg">
<path d="M66.5 57.2C67 56.6 67.4 56 67.9 55.4C68.2 55 68.5 54.9 68.9 54.9C69.7 54.9 70.5 54.9 71.3 54.9C71.6 54.9 71.8 55 72 55.2C72.6 55.7 73.2 56.2 73.8 56.8C74.1 57.1 74.3 57.5 74.6 57.8C75.4 59.2 76.5 60.4 77.7 61.5C78 61.8 78.2 62.2 78.3 62.6C78.5 63.4 78.7 64.2 78.9 64.9C78.9 65 79.1 65.2 79.2 65.3C80.8 65.9 82.5 66.4 84.1 67C84.9 67.3 85 67.9 84.4 68.4C84 68.8 83.6 69.2 83.2 69.6C83.1 69.7 83 70 83 70.1C83 70.7 83 71.2 83.1 71.8C83.3 72.8 83.1 73.8 82.8 74.8C82.5 75.8 82.4 76.8 82.6 77.9C82.6 78.1 82.7 78.3 82.8 78.5C83.7 79.3 84.2 80.3 84.1 81.5C84.1 82.4 84.4 83 85.1 83.6C85.5 84 85.8 84.4 85.9 85C86.1 85.7 86.3 86.4 86.6 87.1C86.7 87.3 86.8 87.4 86.9 87.5C87.7 88.2 88.6 88.5 89.6 88.7C90.2 88.8 90.6 89.1 90.9 89.6C91.2 90.1 91.1 90.2 91.7 89.8C93.2 88.8 94.9 88.9 96.5 88.9C97.1 88.9 97.6 89.1 98.2 89.2C98.7 89.3 98.8 89.2 98.8 88.7C98.8 88.2 98.8 87.8 98.8 87.3C98.8 87 98.9 86.6 99.2 86.5C100.6 85.7 101 84.3 101.1 82.8C101.1 82.2 101.2 81.7 101.3 81.1C101.4 80.5 101.7 80.3 102.2 80.4C102.9 80.5 103.6 80.6 104.3 80.7C104.6 80.7 104.9 80.7 105.1 80.6C106.1 79.9 107.3 79.7 108.5 79.7C109.3 79.7 110.2 79.7 111 79.6C111.6 79.6 111.8 79.8 112 80.3C112.2 81 112.4 81.6 112.6 82.3C112.7 82.6 112.7 83 112.4 83.2C112.2 83.4 112.1 83.6 111.9 83.7C111.2 84.3 110.8 85.1 110.7 86C110.6 86.5 110.7 87.1 110.6 87.6C110.6 88 110.5 88.4 110.4 88.8C110.2 89.3 110 89.8 109.7 90.3C109.4 91 108.8 91 108.3 90.5C108.1 90.3 108 90.2 107.8 90C107.3 90.5 106.7 90.9 106.6 91.7C106.6 92.2 106.3 92.4 105.8 92.4C104.7 92.4 103.6 92.4 102.5 92.4C102.4 92.4 102.2 92.4 102 92.4C102.2 93.1 102.1 93.7 101.3 93.9C101.3 94 101.3 94 101.3 94C102.2 94.6 102.4 95.5 102.6 96.5C102.7 96.9 102.4 97.3 102 97.4C101.1 97.6 100.1 97.8 99.0999 98C98.7999 98 98.6999 98.2 98.5999 98.4C98.2999 99.1 98 99.7 97.7 100.4C97.6 100.7 97.4 100.9 97 100.9C97 100.7 97 100.5 97 100.3C97 99.8 97 99.8 96.4 99.9C96.4 100 96.4 100.1 96.4 100.2C96.4 100.3 96.4 100.4 96.4 100.5C96 100.4 96.1999 100.1 96.0999 99.9C95.9999 99.9 95.9 99.8 95.9 99.9C95.5 100 95.3 99.8 95 99.6C94.1 98.9 93.3 98.3 92.4 97.6C92.2 97.4 91.8 97.3 91.5 97.2C91.2 97.1 90.9 97.1 90.6 97.1C89.8 96.9 89 97.1 88.2 97.4C87.4 97.7 86.5 98 85.6 98.3C85.4 98.4 85.1 98.4 84.9 98.3C81 97.2 77.1 96 73.3 94.6C72.6 94.4 72.2 93.9 71.7 93.4C71 92.8 70.3 92.2 69.5 91.6C69.3 91.5 69.1 91.4 68.9 91.3C67.8 91 66.6 90.7 65.5 90.3C65.3 90.2 65 90.1 64.9 90C63.9 88.6 62.5 87.6 61.1 86.6C60.7 86.3 60.4 86.1 60 85.8C59.6 85.5 59.5 85.2 59.7 84.7C59.9 84.1 60.1 83.4 60.4 82.9C60.8 82.1 60.6 81.4 60.2 80.7C58.9 78 57.2 75.4 55.5 72.9C54.9 71.9 54.1 71.2 53 70.7C52 70.3 51 69.7 50 69.2C49.5 68.9 49.3 68.7 49.5 68.1C49.6 67.6 49.7 67.1 49.8 66.5C49.8 66.3 49.8 66.1 49.6 66C48.6 65.6 47.9 64.8 47.4 63.9C47.1 63.3 46.7 62.7 46.3 62.2C46.2 62 46 61.8 45.8 61.8C45 61.5 44.5 61 44 60.3C43.3 59.2 42.5 58.2 41.7 57.1C41.5 56.9 41.4 56.6 41.4 56.3C41.3 55.4 41.3 54.6 41.3 53.7C41.3 53.5 41.2 53.4 41 53.3C40 53 39 52.6 38 52.2C37.9 52.1 37.7 52 37.6 51.9C37.4 51.6 37.1 51.5 36.8 51.6C36.7 51.7 36.6 51.8 36.6 52C36.6 52.1 36.7 52.2 36.8 52.3C36.7 52.5 36.6 52.7 36.6 53C36.6 53.3 36.7 53.4 37 53.4C37.1 53.4 37.2 53.4 37.3 53.5C37.4 53.6 37.5 53.8 37.7 54C38.3 55 39 55.8 39.9 56.6C40.2 56.8 40.3 57.1 40.4 57.5C40.5 58.3 40.6 59.1 40.7 59.8C40.7 60.2 40.8 60.5 41.1 60.9C41.5 61.5 41.9 62 42.2 62.6C42.3 62.8 42.5 62.9 42.6 63C43.2 63.4 43.8 63.8 44.5 64.2C44.8 64.4 45 64.7 45 65C45.2 66 45.4 67 45.6 68C45.7 68.2 45.8 68.5 45.9 68.7C46 68.9 46.2 69.1 46.4 69.3C47 70.2 47.9 70.9 48.8 71.6C49 71.7 49.1 71.9 49.2 72.1C49.6 72.9 50 73.7 50.4 74.5C50.6 74.9 50.5 75.2 50.2 75.5C49.7 76.1 49.2 76.6 48.6 77.2C48.1 77.7 47.6 77.7 47.2 77C47 76.7 46.8 76.3 46.6 76C46.3 75.3 45.8 74.8 45.2 74.5C44.1 73.9 43.4 72.9 42.5 72.1C42.1 71.8 41.9 71.4 41.8 70.9C41.5 69.8 41.2 68.6 41 67.5C41 67.4 40.9 67.2 40.8 67.1C40.7 67 40.6 67 40.6 66.9C40.1 66.5 39.6 66 39 65.7C38.4 65.5 37.7 65.6 37 65.6C36.7 65.6 36.4 65.5 36.2 65.2C35.4 64.2 34.5 63.2 33.7 62.3C33.5 62 33.4 61.8 33.5 61.4C33.7 61.1 34 61 34.3 61C34.5 61 34.7 61 34.9 61C35.6 61.1 35.9 60.8 36.1 60.2C36.1 60.1 36.1 59.9 36.1 59.8C36.1 59.5 35.9 59.3 35.9 59C35.9 58.3 35.5 58 34.9 57.8C34 57.4 33 57 32.1 56.6C31.7 56.4 31.5 56.2 31.5 55.7C31.5 55.1 31.4 54.6 31.3 54C31.3 53.8 31.1 53.6 31 53.4C30.6 52.7 30.1 52.1 29.7 51.4C29.3 50.8 29.2 50.2 29.2 49.5C29.2 48.7 29.2 47.9 29.2 47C29.2 46.4 29.5 46.1 30.1 46.1C32.1 46.1 34 46.1 36 46.1C36.6 46.1 37.1 46.4 37.7 46.6C40.8 47.7 43.9 48.8 47 49.8C47.2 49.9 47.4 49.9 47.6 49.9C49.5 49.9 51.4 49.9 53.3 49.9C53.6 49.9 53.7 49.8 53.7 49.5C53.7 49.3 53.7 49 53.7 48.8C53.7 48.4 54 48.1 54.4 48.1C55.9 48.1 57.3 48.1 58.8 48.2C59 48.2 59.2 48.4 59.4 48.6C59.9 49.3 60.4 50 61 50.7C61.5 51.3 62.1 51.8 62.6 52.3C62.8 52.5 62.9 52.7 63.1 53C63.2 53.3 63.4 53.6 63.5 53.9C63.7 54.8 64.3 55.5 65 56.1C65.6 56.3 66 56.8 66.5 57.2ZM82.7 68C82.5 67.9 82.3 67.9 82.2 67.8C80.8 67.3 79.5 66.9 78.1 66.4C77.7 66.3 77.5 66.1 77.4 65.7C77.2 64.8 77 64 76.8 63.1C76.7 62.8 76.6 62.5 76.3 62.2C75.3 61.2 74.3 60.2 73.6 59C73 57.9 72.2 57.1 71.2 56.4C71.1 56.3 70.9 56.2 70.7 56.2C70.1 56.2 69.6 56.2 69 56.2C68.9 56.2 68.7 56.3 68.6 56.4C68.1 57.1 67.6 57.7 67.1 58.4C66.7 58.9 66.3 58.9 65.8 58.5C65.2 58 64.6 57.4 64 56.9C63 56.1 62.3 55.1 61.9 53.8C61.8 53.3 61.5 52.9 61 52.6C60.6 52.3 60.1 52 60 51.4L59.9 51.3C59.7 51.1 59.5 50.9 59.3 50.7C59 50.3 58.7 49.9 58.4 49.6C58.3 49.5 58.1 49.4 57.9 49.4C57.2 49.4 56.6 49.4 55.9 49.3C55 49.3 55 49.3 55 50.1C55 50.9 54.8 51.1 54 51.1C51.8 51.1 49.6 51.1 47.4 51.1C47.1 51.1 46.7 51 46.4 50.9C43 49.7 39.6 48.6 36.2 47.4C35.9 47.3 35.7 47.3 35.4 47.3C33.9 47.3 32.5 47.3 31 47.3C30.9 47.3 30.7 47.3 30.6 47.3C30.6 47.8 30.6 48.2 30.6 48.6C30.5 49.5 30.8 50.3 31.3 51.1C31.5 51.4 31.7 51.8 32 52C32.4 52.3 32.6 52.7 32.7 53.2C32.8 53.7 32.9 54.2 32.9 54.7C32.9 55 33.1 55.1 33.3 55.2C34.4 55.7 35.5 56.2 36.5 56.6C36.8 56.7 37 56.9 37 57.3C37.2 58.1 37.4 58.8 37.5 59.6C37.5 59.9 37.5 60.2 37.4 60.4C37.3 60.7 37 61 36.8 61.4C36.6 61.8 36.3 62.2 35.6 62.2C36 62.6 36.3 62.9 36.5 63.3C36.8 63.7 37.2 64 37.8 63.9C38.2 63.8 38.5 63.9 38.9 63.9C39.1 63.9 39.4 64 39.6 64.1C40.2 64.5 40.9 65 41.5 65.5C42 65.9 42.4 66.3 42.5 67C42.6 68 43 69 43.2 70C43.3 70.2 43.4 70.5 43.6 70.7C44.6 71.8 45.6 72.7 46.9 73.4C47.1 73.5 47.2 73.7 47.3 73.9C47.6 74.3 47.8 74.7 48 75.1C48.2 74.9 48.3 74.7 48.5 74.6C48.7 74.4 48.7 74.3 48.6 74.1C48.4 73.6 48.2 73.1 47.9 72.7C47.8 72.5 47.6 72.3 47.5 72.2C47 71.8 46.5 71.5 46 71C45.4 70.4 44.9 69.7 44.4 69C44.2 68.8 44.1 68.5 44 68.2C43.8 67.3 43.6 66.3 43.4 65.4C43.4 65.2 43.2 65 43 64.9C42.5 64.5 41.9 64.2 41.3 63.8C41.1 63.7 40.9 63.5 40.8 63.3C40.3 62.5 39.7 61.7 39.2 60.9C39.1 60.7 39 60.5 39 60.3C38.9 59.4 38.8 58.6 38.7 57.7C38.7 57.5 38.5 57.2 38.4 57.1C38 56.6 37.5 56.2 37.1 55.6C36.5 54.9 36 54.1 35.5 53.4C35.4 53.2 35.3 53 35.3 52.8C35.3 52.1 35.3 51.4 35.3 50.6C35.3 50.1 35.7 49.7 36.2 49.9C38.1 50.5 40.1 51.2 42 51.9C42.3 52 42.5 52.3 42.5 52.6C42.5 53.6 42.6 54.5 42.7 55.5C42.7 55.7 42.8 56 42.9 56.1C43.7 57.2 44.5 58.3 45.3 59.4C45.4 59.6 45.6 59.8 45.8 59.8C46.6 60.1 47.1 60.6 47.5 61.3C47.6 61.5 47.8 61.7 47.6 62.1C47.4 62.5 47.7 62.8 48 62.7C48.3 62.6 48.4 62.7 48.5 62.9C48.8 63.6 49.4 64 50.1 64.3C50.3 64.4 50.5 64.5 50.8 64.7C51.1 64.9 51.3 65.2 51.2 65.6C51.1 66.1 51 66.6 50.9 67.1C50.8 67.4 50.9 67.6 51.2 67.8C52 68.2 52.8 68.7 53.7 69C55 69.5 55.8 70.3 56.5 71.5C58.3 74.2 60.1 76.8 61.5 79.7C61.9 80.7 62.2 81.7 61.7 82.7C61.5 83 61.5 83.3 61.3 83.6C61 84.3 61 84.3 61.7 84.8C63.1 85.9 64.7 86.8 65.7 88.3C65.8 88.4 65.9 88.5 66.1 88.5C67.1 88.8 68.2 89.1 69.2 89.4C69.7 89.5 70 89.7 70.4 90C71.3 90.8 72.3 91.6 73.3 92.4C73.4 92.5 73.6 92.6 73.7 92.7C77.3 94 81 95.1 84.7 96.2C84.9 96.3 85.2 96.3 85.4 96.2C86.5 95.8 87.6 95.5 88.8 95.1C89 95 89.3 95 89.5 95C90.3 95.1 91 95.2 91.8 95.2C92.2 95.2 92.5 95.3 92.8 95.6C93.8 96.4 94.8 97.2 95.9 97.9C96.1 98.1 96.4 98.3 96.7 98.5C97 97.9 97.2 97.3 97.5 96.8C97.6 96.5 97.9 96.3 98.2 96.2C99.1 96 100 95.8 100.9 95.6C100.9 95.3 100.8 95 100.5 94.8C100.1 94.5 99.7 94.3 99.4 94C98.9 93.6 99 93.1 99.5 92.8C99.6 92.7 99.7 92.7 99.8 92.6C100.5 92.2 100.5 92.2 100.4 91.4C100.3 90.8 100.6 90.5 101.2 90.5C102 90.5 102.8 90.5 103.6 90.5C103.8 90.5 103.9 90.7 104.1 90.7C104.2 90.7 104.4 90.6 104.6 90.6C104.5 90.8 104.3 90.9 104.2 91C104.1 91.2 104 91.4 104 91.6C104 91.7 104.1 91.8 104.2 91.8C104.4 91.8 104.7 91.8 105 91.8C105 91.3 105 90.9 105 90.5C105 90.5 105.1 90.5 105.1 90.6C105.2 90.4 105.3 90.3 105.4 90.1C105.5 89.9 105.5 89.7 105.7 89.6C106.2 89.1 106.8 88.5 107.4 88C107.7 87.7 108.1 87.7 108.4 88C108.5 88.1 108.6 88.3 108.7 88.4C108.8 88.2 108.9 88.1 108.9 88.1C109.3 87.5 109.1 86.8 109.2 86.1C109.3 84.8 109.5 83.6 110.5 82.6C111.1 82.1 111.2 81.5 110.9 80.8C110.8 80.6 110.7 80.5 110.5 80.5C109.9 80.5 109.3 80.6 108.7 80.5C107.7 80.5 106.8 80.6 106 81.2C105.4 81.6 104.8 81.7 104.2 81.5C103.7 81.4 103.3 81.4 102.8 81.3C102.8 81.4 102.8 81.5 102.8 81.5C102.7 82.7 102.6 84 102 85.2C101.8 85.5 101.7 85.9 101.4 86C100.6 86.5 100.3 87.1 100.4 88.1C100.5 88.7 100.2 89.2 99.8 89.6C99.4 90 99 90.1 98.4 90C97.6 89.8 96.7 89.7 95.9 89.6C94.5 89.5 93.3 89.8 92.1 90.6C91 91.3 90.9 91.2 90.1 90.1C89.8 89.7 89.5 89.4 89 89.3C88.5 89.2 87.9 89.1 87.5 88.8C87 88.5 86.5 88.2 86 87.8C85.8 87.6 85.6 87.4 85.5 87.2C85.3 86.7 85.1 86.1 84.9 85.5C84.7 84.7 84.3 83.9 83.6 83.4C83.1 83 82.9 82.4 82.9 81.8C82.9 81.5 82.8 81.2 82.8 80.9C82.8 80.1 82.5 79.5 81.9 78.9C81.4 78.5 81.2 77.9 81.2 77.3C81.1 76.1 81.1 75 81.5 73.9C81.7 73.3 81.8 72.7 81.9 72.1C82.1 72.1 82.4 72.1 82.8 72.1C82.8 71.7 82.8 71.3 82.8 70.9C82.8 70.6 82.7 70.4 82.4 70.3C82.1 70.3 81.9 70.3 81.8 70.6C81.4 70 81.6 68.9 82.7 68Z" fill="url(#paint0_linear_1_2898)" stroke="#005640" stroke-width="0.5" stroke-miterlimit="10"/>
<path d="M71.1 142.3C32 142.3 0.0999756 110.5 0.0999756 71.3C0.0999756 32.2 31.9 0.299988 71.1 0.299988C110.3 0.299988 142.1 32.1 142.1 71.3C142.1 110.5 110.2 142.3 71.1 142.3ZM71.1 5.39999C34.7 5.39999 5.09998 35 5.09998 71.4C5.09998 107.8 34.7 137.4 71.1 137.4C107.5 137.4 137.1 107.8 137.1 71.4C137.1 35 107.5 5.39999 71.1 5.39999Z" fill="#D79F4F"/>
<defs>
<linearGradient id="paint0_linear_1_2898" x1="29.3564" y1="73.3516" x2="112.848" y2="73.3516" gradientUnits="userSpaceOnUse">
<stop offset="0.00357498" stop-color="#005640"/>
<stop offset="1" stop-color="#1B3F3B"/>
</linearGradient>
</defs>
</svg>
