<svg width="143" height="143" viewBox="0 0 143 143" fill="none" xmlns="http://www.w3.org/2000/svg">
<path d="M57.2 77.6C57.2 77.6 61 80.5 63.1 88.1H80.5C82.6 80.5 86.4 77.6 86.4 77.6C91 73.5 93.9 67.6 93.9 61C93.9 48.8 84 38.8 71.7 38.8C59.5 38.8 49.5 48.7 49.5 61C49.6 67.6 52.6 73.5 57.2 77.6Z" stroke="#005640" stroke-width="2" stroke-miterlimit="10"/>
<path d="M80.6 88.1H63V99H80.6V88.1Z" stroke="#005640" stroke-width="2" stroke-miterlimit="10"/>
<path d="M66.9 99C66.9 101.7 69.1 103.9 71.8 103.9C74.5 103.9 76.7 101.7 76.7 99H66.9Z" stroke="#005640" stroke-width="2" stroke-miterlimit="10"/>
<path d="M63 93.6H80.6" stroke="#005640" stroke-width="2" stroke-miterlimit="10"/>
<path d="M86.9 57.2C86.9 57.2 69.3 54.4 72.1 72C89.7 74.8 86.9 57.2 86.9 57.2Z" stroke="#005640" stroke-width="2" stroke-miterlimit="10"/>
<path d="M82.3 61.8L72.1 72" stroke="#005640" stroke-width="2" stroke-miterlimit="10"/>
<path d="M56.7 57.2C56.7 57.2 74.3 54.4 71.5 72C53.9 74.8 56.7 57.2 56.7 57.2Z" stroke="#005640" stroke-width="2" stroke-miterlimit="10"/>
<path d="M61.3 61.8L71.5 72" stroke="#005640" stroke-width="2" stroke-miterlimit="10"/>
<path d="M71.8 88.1V71.8" stroke="#005640" stroke-width="2" stroke-miterlimit="10"/>
<path d="M71.8 142.3C32.7 142.3 0.799988 110.5 0.799988 71.3C0.799988 32.2 32.6 0.299988 71.8 0.299988C111 0.299988 142.8 32.1 142.8 71.3C142.8 110.5 110.9 142.3 71.8 142.3ZM71.8 5.39999C35.4 5.39999 5.79999 35 5.79999 71.4C5.79999 107.8 35.4 137.4 71.8 137.4C108.2 137.4 137.8 107.8 137.8 71.4C137.8 35 108.2 5.39999 71.8 5.39999Z" fill="#D79F4F"/>
</svg>
